<?xml version="1.0" encoding="UTF-8"?>
<svg width="31px" height="38px" viewBox="0 0 31 38" version="1.1" xmlns="http://www.w3.org/2000/svg" xmlns:xlink="http://www.w3.org/1999/xlink">
    <!-- Generator: Sketch 41 (35326) - http://www.bohemiancoding.com/sketch -->
    <title>picker 1</title>
    <desc>Created with Sketch.</desc>
    <defs>
        <filter x="-50%" y="-50%" width="200%" height="200%" filterUnits="objectBoundingBox" id="filter-1">
            <feOffset dx="0" dy="2" in="SourceAlpha" result="shadowOffsetOuter1"></feOffset>
            <feGaussianBlur stdDeviation="2" in="shadowOffsetOuter1" result="shadowBlurOuter1"></feGaussianBlur>
            <feColorMatrix values="0 0 0 0 0   0 0 0 0 0   0 0 0 0 0  0 0 0 0.5 0" type="matrix" in="shadowBlurOuter1" result="shadowMatrixOuter1"></feColorMatrix>
            <feMerge>
                <feMergeNode in="shadowMatrixOuter1"></feMergeNode>
                <feMergeNode in="SourceGraphic"></feMergeNode>
            </feMerge>
        </filter>
    </defs>
    <g id="Page-1" stroke="none" stroke-width="1" fill="none" fill-rule="evenodd">
        <g id="carte" filter="url(#filter-1)" transform="translate(-267.000000, -307.000000)">
            <g id="picker-1" transform="translate(271.000000, 309.000000)">
                <path d="M11.25,30 C11.25,30 22.5,17.4632034 22.5,11.25 C22.5,5.03679656 17.4632034,0 11.25,0 C5.03679656,0 0,5.03679656 0,11.25 C0,17.4632034 11.25,30 11.25,30 Z M11.25,18.5 C15.3921356,18.5 18.75,15.1421356 18.75,11 C18.75,6.85786438 15.3921356,3.5 11.25,3.5 C7.10786438,3.5 3.75,6.85786438 3.75,11 C3.75,15.1421356 7.10786438,18.5 11.25,18.5 Z" id="Combined-Shape" fill="#E74C3C"></path>
                <ellipse id="Oval-7" fill="#FFFFFF" cx="11.25" cy="11" rx="7.75" ry="7.5"></ellipse>
            </g>
        </g>
    </g>
</svg>